<svg xmlns="http://www.w3.org/2000/svg" viewBox="0 0 1200 680" width="1200" height="680">
  <defs>
    <linearGradient id="bg" x1="0%" y1="0%" x2="100%" y2="100%">
      <stop offset="0%" stop-color="#0f1729"/>
      <stop offset="50%" stop-color="#162033"/>
      <stop offset="100%" stop-color="#0d1321"/>
    </linearGradient>
    <linearGradient id="iconbg" x1="0%" y1="0%" x2="100%" y2="100%">
      <stop offset="0%" stop-color="#3366CC"/>
      <stop offset="100%" stop-color="#5b96d5"/>
    </linearGradient>
    <linearGradient id="btnbg" x1="0%" y1="0%" x2="100%" y2="0%">
      <stop offset="0%" stop-color="#3366CC"/>
      <stop offset="100%" stop-color="#5b96d5"/>
    </linearGradient>
    <clipPath id="iconclip"><rect x="80" y="115" width="110" height="110" rx="26"/></clipPath>
    <filter id="shadow1"><feDropShadow dx="0" dy="4" stdDeviation="12" flood-color="#000" flood-opacity="0.4"/></filter>
    <filter id="shadow2"><feDropShadow dx="0" dy="2" stdDeviation="6" flood-color="#000" flood-opacity="0.3"/></filter>
    <filter id="glow1"><feGaussianBlur stdDeviation="60"/></filter>
  </defs>

  <!-- Background -->
  <rect width="1200" height="680" rx="12" fill="url(#bg)"/>

  <!-- Subtle top-left glow -->
  <ellipse cx="200" cy="200" rx="300" ry="250" fill="#3366CC" opacity="0.04" filter="url(#glow1)"/>

  <!-- ========== LEFT SIDE ========== -->

  <!-- Icon -->
  <rect x="80" y="115" width="110" height="110" rx="26" fill="url(#iconbg)" filter="url(#shadow2)"/>
  <text x="135" y="190" text-anchor="middle" font-family="'Cascadia Code','Fira Code',monospace" font-size="48" font-weight="bold" fill="white" opacity="0.95">&lt;/&gt;</text>

  <!-- Title -->
  <text x="220" y="165" font-family="-apple-system,BlinkMacSystemFont,'Segoe UI',Roboto,sans-serif" font-size="52" font-weight="bold" fill="white" letter-spacing="-1">HTMX DevTools</text>

  <!-- Subtitle -->
  <text x="220" y="202" font-family="-apple-system,BlinkMacSystemFont,'Segoe UI',Roboto,sans-serif" font-size="22" fill="#6b7b8d">for Chrome &amp; Firefox</text>

  <!-- Feature bullets -->
  <g font-family="-apple-system,BlinkMacSystemFont,'Segoe UI',Roboto,sans-serif" font-size="18" fill="#c9d1d9">
    <circle cx="105" cy="290" r="5" fill="#3b82f6"/>
    <text x="125" y="296">Request lifecycle inspector</text>

    <circle cx="105" cy="335" r="5" fill="#3b82f6"/>
    <text x="125" y="341">Live DOM tree of htmx elements</text>

    <circle cx="105" cy="380" r="5" fill="#3b82f6"/>
    <text x="125" y="386">Event timeline with filters</text>

    <circle cx="105" cy="425" r="5" fill="#3b82f6"/>
    <text x="125" y="431">Swap diff visualizer</text>

    <circle cx="105" cy="470" r="5" fill="#3b82f6"/>
    <text x="125" y="476">Silent error detection</text>
  </g>

  <!-- ========== RIGHT SIDE: DevTools Window ========== -->
  <g transform="translate(580, 80)" filter="url(#shadow1)">
    <!-- Window frame -->
    <rect width="560" height="480" rx="10" fill="#1e1e1e"/>
    <rect width="560" height="36" rx="10" fill="#2d2d2d"/>
    <rect y="26" width="560" height="10" fill="#2d2d2d"/>

    <!-- Traffic lights -->
    <circle cx="20" cy="18" r="6" fill="#ff5f57"/>
    <circle cx="40" cy="18" r="6" fill="#febc2e"/>
    <circle cx="60" cy="18" r="6" fill="#28c840"/>

    <!-- Tab bar inside window -->
    <rect y="36" width="560" height="26" fill="#252526"/>
    <rect y="62" width="560" height="1" fill="#3c3c3c"/>
    <g font-family="-apple-system,sans-serif" font-size="11" fill="#969696">
      <text x="16" y="54" fill="#e0e0e0" font-weight="600">Requests</text>
      <rect x="10" y="59" width="60" height="2" rx="1" fill="#3b82f6"/>
      <text x="86" y="54">Elements</text>
      <text x="148" y="54">Timeline</text>
      <text x="212" y="54">Swaps</text>
      <text x="258" y="54">Errors</text>
      <rect x="290" y="46" width="18" height="14" rx="7" fill="#ef4444"/>
      <text x="299" y="56" text-anchor="middle" fill="white" font-size="9" font-weight="700">2</text>
      <text x="490" y="54" fill="#4a5568" font-size="10">htmx 2.x + 4.0</text>
    </g>

    <!-- Toolbar -->
    <rect y="63" width="560" height="22" fill="#252526"/>
    <circle cx="16" cy="74" r="4" fill="#ef4444"/>
    <text x="28" y="78" font-family="-apple-system,sans-serif" font-size="10" fill="#6a6a6a">5 requests</text>
    <rect y="85" width="560" height="1" fill="#3c3c3c"/>

    <!-- Split line -->
    <rect x="240" y="86" width="1" height="394" fill="#3c3c3c"/>

    <!-- Request list -->
    <g font-family="'SF Mono','Fira Code',monospace" font-size="10">
      <rect y="86" width="240" height="24" fill="#094771"/>
      <circle cx="14" cy="98" r="3" fill="#22c55e"/>
      <rect x="22" y="92" width="24" height="11" rx="2" fill="#22c55e"/><text x="25" y="101" fill="#000" font-size="8" font-weight="700">GET</text>
      <text x="50" y="101" fill="#b0b0b0">/api/time</text>
      <text x="180" y="101" fill="#6a6a6a" font-size="9">9ms</text>

      <rect y="110" width="240" height="24" fill="transparent"/>
      <circle cx="14" cy="122" r="3" fill="#22c55e"/>
      <rect x="22" y="116" width="24" height="11" rx="2" fill="#3b82f6"/><text x="23" y="125" fill="#fff" font-size="8" font-weight="700">POST</text>
      <text x="50" y="125" fill="#b0b0b0">/api/echo</text>
      <text x="180" y="125" fill="#6a6a6a" font-size="9">12ms</text>

      <rect y="134" width="240" height="24" fill="transparent"/>
      <circle cx="14" cy="146" r="3" fill="#22c55e"/>
      <rect x="22" y="140" width="24" height="11" rx="2" fill="#f59e0b"/><text x="25" y="149" fill="#000" font-size="8" font-weight="700">PUT</text>
      <text x="50" y="149" fill="#b0b0b0">/api/update</text>
      <text x="180" y="149" fill="#6a6a6a" font-size="9">8ms</text>

      <rect y="158" width="240" height="24" fill="transparent"/>
      <circle cx="14" cy="170" r="3" fill="#ef4444"/>
      <rect x="22" y="164" width="34" height="11" rx="2" fill="#ef4444"/><text x="23" y="173" fill="#fff" font-size="8" font-weight="700">DELETE</text>
      <text x="60" y="173" fill="#b0b0b0">/api/item/42</text>
      <text x="180" y="173" fill="#6a6a6a" font-size="9">6ms</text>

      <rect y="182" width="240" height="24" fill="transparent"/>
      <circle cx="14" cy="194" r="3" fill="#ef4444"/>
      <rect x="22" y="188" width="24" height="11" rx="2" fill="#22c55e"/><text x="25" y="197" fill="#000" font-size="8" font-weight="700">GET</text>
      <text x="50" y="197" fill="#b0b0b0">/api/error-500</text>
      <text x="180" y="197" fill="#6a6a6a" font-size="9">10ms</text>
    </g>

    <!-- Detail panel -->
    <g font-family="-apple-system,sans-serif" transform="translate(252, 92)">
      <text y="8" font-size="9" fill="#6a6a6a" font-weight="600" letter-spacing="0.5">SUMMARY</text>
      <g font-size="10" font-family="'SF Mono',monospace">
        <text x="0" y="26" fill="#06b6d4">Method</text><text x="80" y="26" fill="#ccc">GET</text>
        <text x="0" y="42" fill="#06b6d4">URL</text><text x="80" y="42" fill="#ccc">/api/time</text>
        <text x="0" y="58" fill="#06b6d4">Status</text><text x="80" y="58" fill="#22c55e">success</text>
        <text x="0" y="74" fill="#06b6d4">Swap</text><text x="80" y="74" fill="#ccc">innerHTML</text>
        <text x="0" y="90" fill="#06b6d4">Trigger</text><text x="80" y="90" fill="#06b6d4">&lt;button.btn&gt;</text>
      </g>

      <!-- Timeline bar -->
      <text y="118" font-size="9" fill="#6a6a6a" font-weight="600">TIMELINE (9ms)</text>
      <g transform="translate(0, 126)">
        <rect width="40" height="12" rx="2" fill="#6366f1"/>
        <rect x="40" width="14" height="12" fill="#3b82f6"/>
        <rect x="54" width="130" height="12" fill="#f59e0b"/>
        <rect x="184" width="26" height="12" fill="#22c55e"/>
        <rect x="210" width="86" height="12" rx="0" fill="#06b6d4"/>
        <text x="100" y="10" font-size="7" fill="#000" font-weight="600">Wait 6ms</text>
        <text x="240" y="10" font-size="7" fill="#fff" font-weight="600">Settle</text>
      </g>

      <!-- Headers -->
      <text y="162" font-size="9" fill="#6a6a6a" font-weight="600">REQUEST HEADERS</text>
      <g font-size="10" font-family="'SF Mono',monospace">
        <text x="0" y="178" fill="#06b6d4">HX-Request</text><text x="100" y="178" fill="#ccc">true</text>
        <text x="0" y="192" fill="#06b6d4">HX-Target</text><text x="100" y="192" fill="#ccc">get-result</text>
      </g>

      <!-- Response -->
      <text y="218" font-size="9" fill="#6a6a6a" font-weight="600">RESPONSE BODY</text>
      <rect y="226" width="296" height="28" rx="3" fill="#161b22"/>
      <text x="8" y="244" font-size="10" font-family="'SF Mono',monospace" fill="#abb2bf">&lt;span&gt;Server time: 10:53 AM&lt;/span&gt;</text>

      <!-- Events -->
      <text y="274" font-size="9" fill="#6a6a6a" font-weight="600">EVENTS (8)</text>
      <g font-size="9" font-family="'SF Mono',monospace">
        <text x="0" y="290" fill="#3b82f6">configRequest</text><text x="160" y="290" fill="#6a6a6a">+0ms</text>
        <text x="0" y="304" fill="#3b82f6">beforeSend</text><text x="160" y="304" fill="#6a6a6a">+1ms</text>
        <text x="0" y="318" fill="#8b5cf6">xhr:loadstart</text><text x="160" y="318" fill="#6a6a6a">+3ms</text>
        <text x="0" y="332" fill="#06b6d4">beforeOnLoad</text><text x="160" y="332" fill="#6a6a6a">+13ms</text>
        <text x="0" y="346" fill="#22c55e">beforeSwap</text><text x="160" y="346" fill="#6a6a6a">+13ms</text>
        <text x="0" y="360" fill="#22c55e">afterSwap</text><text x="160" y="360" fill="#6a6a6a">+14ms</text>
        <text x="0" y="374" fill="#3b82f6">afterRequest</text><text x="160" y="374" fill="#6a6a6a">+15ms</text>
      </g>
    </g>
  </g>

  <!-- ========== FOOTER ========== -->
  <text x="600" y="620" text-anchor="middle" font-family="-apple-system,sans-serif" font-size="14" fill="#4a5568">github.com/atoolz/htmx-devtools</text>

  <!-- Badge button -->
  <g transform="translate(1030, 600)">
    <rect width="120" height="34" rx="17" fill="url(#btnbg)"/>
    <text x="60" y="22" text-anchor="middle" font-family="-apple-system,sans-serif" font-size="14" fill="white" font-weight="600">Chrome &amp; FF</text>
  </g>
</svg>
